<svg xmlns="http://www.w3.org/2000/svg" viewBox="0 0 112.48 171.95"><defs><style>.cls-1{fill:#fff;}</style></defs><g id="Layer_2" data-name="Layer 2"><g id="Layer_1-2" data-name="Layer 1"><path class="cls-1" d="M112.47,58.13a61.81,61.81,0,0,0-8.85-30.71,60.13,60.13,0,0,0-5.06-7.1c-.79-.95-1.6-1.87-2.4-2.73A56,56,0,0,0,78.62,4.88a51.88,51.88,0,0,0-7-2.64,53.71,53.71,0,0,0-30.7,0,52.38,52.38,0,0,0-7,2.64A56,56,0,0,0,16.32,17.59c-.81.87-1.59,1.76-2.33,2.65a58.8,58.8,0,0,0-5.07,7.09A61.91,61.91,0,0,0,0,58c0,.5,0,1,0,1.52V112.4c0,1.87.08,3.73.24,5.52a60.32,60.32,0,0,0,16.08,36.44,54.09,54.09,0,0,0,79.84,0A60.21,60.21,0,0,0,112.24,118c.16-1.85.24-3.72.24-5.57V59.54C112.48,59.07,112.48,58.6,112.47,58.13ZM77.23,10.79l.94.49A51.42,51.42,0,0,1,96.53,27.44l.23.33-22,54.82-.73-.36a39,39,0,0,0-6-2.42l-.61-.19Zm1.16,81.36a34,34,0,0,1,11.68,21l.14.89-.91,0c-2.91-.11-5.81-.21-8.72-.3l-.93,0q-4.62-.14-9.27-.22h-.5l-6.44-.08-1.5,0c-3.76,0-7.55,0-11.3,0H49c-2.12,0-4.25,0-6.36.07a4.16,4.16,0,0,0-.51,0c-3.11,0-6.2.11-9.29.19l-1,0q-4.37.12-8.73.3l-.91,0,.14-.9A34.34,34.34,0,0,1,23.94,107a32.78,32.78,0,0,1,1.31-3.24A34.51,34.51,0,0,1,40.61,87.77a34,34,0,0,1,11.9-3.58,34.45,34.45,0,0,1,7.46,0,33.69,33.69,0,0,1,7.44,1.67,33.24,33.24,0,0,1,4.54,2A34.09,34.09,0,0,1,78.39,92.15ZM41.51,8.27A47.82,47.82,0,0,1,71,8.27l.6.2-10,69.94-.72-.09a39.58,39.58,0,0,0-9.23,0l-.73.09-10-69.94ZM16,27.35A51.4,51.4,0,0,1,34.31,11.28l.94-.49,9.83,68.83-.61.19a40.13,40.13,0,0,0-5.95,2.38l-.73.36-22-54.87ZM5.93,59.54a55.89,55.89,0,0,1,5.28-23.92L12,34.05,32.66,85.72l-.46.34A40.53,40.53,0,0,0,26,91.84l-.59.68L5.93,67.71Zm0,53.35c0-.16,0-.32,0-.49V77.33L21.82,97.57l-.26.44a38.54,38.54,0,0,0-2.34,4.68,40.2,40.2,0,0,0-2.31,7.47c-.23,1.17-.42,2.32-.54,3.42l-.07.64-.64,0q-3.15.14-6.29.32l-.41,0-3-1.21Zm99.87,8.72c-4.18,25.73-25,44.41-49.57,44.41A48.49,48.49,0,0,1,20.65,150.3a54.53,54.53,0,0,1-14-28.82l-.14-.82,3.17-.17c1.87-.11,3.75-.2,5.63-.29,3.5-.17,7-.32,10.43-.43q1.83-.08,3.66-.12c3.05-.1,6.11-.18,9.16-.24.85,0,1.7,0,2.56,0s1.77,0,2.66,0c1.35,0,2.71,0,4.06,0H50.1c1.16,0,2.34,0,3.52,0,1.78,0,3.56,0,5.35,0,1.14,0,2.29,0,3.43,0q4.5,0,9,.12l2.19,0H74c3,.07,6.07.16,9.1.26l3.57.13c3.52.13,7.06.28,10.51.46,1.88.09,3.74.19,5.61.3l3.17.18Zm.74-9.21c0,.18,0,.36,0,.53v.49l-3.16,1.27h-.27c-2.08-.11-4.17-.23-6.27-.33l-.64,0-.07-.64c-.13-1.18-.31-2.34-.54-3.45A39.8,39.8,0,0,0,91,98.08l-.26-.44,15.84-20.19Zm0-44.57L87.13,92.58l-.59-.69a40.29,40.29,0,0,0-6.19-5.77l-.46-.35,20.7-51.61.73,1.57a55.84,55.84,0,0,1,5.23,23.81Z"/></g></g></svg>