<svg xmlns="http://www.w3.org/2000/svg" viewBox="0 0 113.98 173.45"><defs><style>.cls-1{fill:#fff;}</style></defs><g id="Capa_2" data-name="Capa 2"><g id="Layer_1" data-name="Layer 1"><path class="cls-1" d="M114,58.87a62.42,62.42,0,0,0-9-31.08,57.4,57.4,0,0,0-5.13-7.2q-1.16-1.41-2.43-2.76A56.54,56.54,0,0,0,79.68,5a52.23,52.23,0,0,0-7.12-2.68,54.5,54.5,0,0,0-31.13,0A51.87,51.87,0,0,0,34.3,5,56.65,56.65,0,0,0,16.53,17.83c-.82.87-1.61,1.76-2.37,2.68A60.1,60.1,0,0,0,9,27.69,62.37,62.37,0,0,0,0,58.75c0,.51,0,1,0,1.55v52.85c0,1.88.08,3.75.24,5.59a61.42,61.42,0,0,0,16.29,36.88,54.82,54.82,0,0,0,80.92,0,61.29,61.29,0,0,0,16.28-36.84c.17-1.86.25-3.73.25-5.63V60.3C114,59.82,114,59.34,114,58.87Zm-7.42,1.43v8L87.86,92.15a41.34,41.34,0,0,0-6.31-5.88L101.39,36.8A55.35,55.35,0,0,1,106.55,60.3ZM88.61,108a33.08,33.08,0,0,1,1.47,6q-4.36-.18-8.73-.31l-.92,0c-3.1-.09-6.19-.16-9.29-.22h-.49l-6.45-.08-1.51,0q-5.65,0-11.3,0h-1.6q-3.19,0-6.38.07H42.9c-3.1,0-6.2.11-9.3.19l-1,0q-4.38.12-8.74.3a32.1,32.1,0,0,1,1.49-6,31.32,31.32,0,0,1,1.28-3.17,33.83,33.83,0,0,1,4.18-6.71,35,35,0,0,1,4.53-4.66,33.8,33.8,0,0,1,6.32-4.22,31.26,31.26,0,0,1,4.36-1.87,33.1,33.1,0,0,1,7.27-1.64,35.15,35.15,0,0,1,7.3,0,33.1,33.1,0,0,1,7.27,1.64,32.45,32.45,0,0,1,4.44,1.91,33.82,33.82,0,0,1,6.31,4.24,33.67,33.67,0,0,1,8.68,11.39A33.4,33.4,0,0,1,88.61,108Zm8.06-79.39L75.13,82.31A38.68,38.68,0,0,0,69,79.85L78.57,12.7A50.55,50.55,0,0,1,96.67,28.62ZM57,7.43a46.2,46.2,0,0,1,14.5,2.31l-9.8,68.58a41,41,0,0,0-9.4,0L42.49,9.74A46.25,46.25,0,0,1,57,7.43ZM35.41,12.7,45,79.85a40,40,0,0,0-6.07,2.41L17.38,28.53A50.54,50.54,0,0,1,35.41,12.7Zm-28,47.6a55.51,55.51,0,0,1,5.21-23.61L32.5,86.21a41.48,41.48,0,0,0-6.32,5.89L7.43,68.2Zm0,52.85V80.25L21.66,98.38a39.27,39.27,0,0,0-2.38,4.77,40.61,40.61,0,0,0-2.35,7.6c-.23,1.15-.42,2.31-.55,3.5q-3.15.14-6.31.32H9.83l-2.38.13c0-.36,0-.72,0-1.09C7.43,113.47,7.43,113.31,7.43,113.15ZM57,166a47.87,47.87,0,0,1-35-15.49,54,54,0,0,1-13.8-28.42l.45,0,1.88-.11,5.63-.28c3.46-.17,6.94-.31,10.41-.43,1.22,0,2.44-.09,3.67-.12,3-.1,6.1-.18,9.15-.24l2.54,0c.89,0,1.78,0,2.66,0l4.07,0h2.24c1.17,0,2.34,0,3.52,0q2.67,0,5.34,0c1.14,0,2.29,0,3.43,0,3,0,6,.06,9,.12l2.56,0q4.56.11,9.1.26l3.55.13h0c3.51.12,7,.28,10.51.46,1.87.09,3.73.19,5.6.3l1.71.1.63,0C101.78,147.11,81.46,166,57,166Zm49.56-72.08v19.21c0,.17,0,.34,0,.51,0,.4,0,.79,0,1.17l-2.54-.14h-.07l-6.29-.33c-.14-1.2-.32-2.37-.56-3.53a39.93,39.93,0,0,0-2.33-7.61,42.13,42.13,0,0,0-2.36-4.76l14.18-18.08Z"/></g></g></svg>